<svg xmlns:dc="http://purl.org/dc/elements/1.1/" xmlns:cc="http://creativecommons.org/ns#" xmlns:rdf="http://www.w3.org/1999/02/22-rdf-syntax-ns#" xmlns:svg="http://www.w3.org/2000/svg" xmlns="http://www.w3.org/2000/svg" xmlns:sodipodi="http://sodipodi.sourceforge.net/DTD/sodipodi-0.dtd" xmlns:inkscape="http://www.inkscape.org/namespaces/inkscape" version="1.1" width="100" height="100" id="svg2" inkscape:version="0.48.2 r9819" sodipodi:docname="hand_ring_variant.svg" viewBox="5.0 -10.0 100 135.0">
  <sodipodi:namedview pagecolor="#ffffff" bordercolor="#666666" borderopacity="1" objecttolerance="10" gridtolerance="10" guidetolerance="10" inkscape:pageopacity="0" inkscape:pageshadow="2" inkscape:window-width="1362" inkscape:window-height="724" id="namedview8" showgrid="false" inkscape:zoom="5.0732569" inkscape:cx="37.886876" inkscape:cy="51.556565" inkscape:window-x="4" inkscape:window-y="0" inkscape:window-maximized="1" inkscape:current-layer="g4396" showguides="true" inkscape:guide-bbox="true" fit-margin-top="0" fit-margin-left="0" fit-margin-right="0" fit-margin-bottom="0"/>
  <metadata id="metadata8">
    <rdf:RDF>
      <cc:Work rdf:about="">
        <dc:format>image/svg+xml</dc:format>
        <dc:type rdf:resource="http://purl.org/dc/dcmitype/StillImage"/>
        <dc:title/>
      </cc:Work>
    </rdf:RDF>
  </metadata>
  <defs id="defs6"/>
  <g id="g4396" transform="translate(-1.1781815e-5,-5.1019059e-5)">
    <path style="font-size:medium;font-style:normal;font-variant:normal;font-weight:normal;font-stretch:normal;text-indent:0;text-align:start;text-decoration:none;line-height:normal;letter-spacing:normal;word-spacing:normal;text-transform:none;direction:ltr;block-progression:tb;writing-mode:lr-tb;text-anchor:start;baseline-shift:baseline;color:#000000;fill:#000000;fill-opacity:1;stroke:none;stroke-width:2438.69555664;marker:none;visibility:visible;display:inline;overflow:visible;enable-background:accumulate;font-family:Sans;-inkscape-font-specification:Sans" d="m 53.006135,4.999513 c -1.21951,0.032866 -2.3935,0.605034 -3.1875,1.53125 -0.79398,0.926217 -1.18513,2.196038 -1.03125,3.40625 l 0.9375,8.28125 c 0.002,0.02348 -0.003,0.0703 0,0.09375 l 1.5,13.0625 1.25,13.09375 -1.65625,1.0625 -2.0625,-0.84375 -1.687498,-9.5625 -1.4375,-11.75 -0.5625,-7.375 c -0.0754,-1.154987 -0.65596,-2.273928 -1.53125,-3.03125 -0.8753,-0.757352 -2.03366,-1.153951 -3.1875,-1.0625 -1.15384,0.09148 -2.28622,0.676728 -3.03125,1.5625 -0.74507,0.885773 -1.10756,2.066289 -1,3.21875 l 0.59375,7.46875 c 0.005,0.0614 0.02355,0.126332 0.03125,0.1875 l 1.4375,11.96875 c 0.01,0.07721 0.01755,0.14214 0.03125,0.21875 l 2.25,12.6875 0.25,9.53125 -1.625,8.6875 -2.78125,0.75 -5.71875,-6.125 -2.09375,-5.15625 c -0.19465,-0.481151 -0.46263,-0.929114 -0.8125,-1.3125 l -4.6875,-5.09375 c -0.703819,-0.76823 -1.68386,-1.285751 -2.71875,-1.40625 -1.034918,-0.120441 -2.107318,0.163953 -2.96875,0.75 -0.861432,0.586047 -1.513271,1.493154 -1.78125,2.5 -0.268008,1.006846 -0.143633,2.094507 0.3125,3.03125 l 5.0625,10.375 c 0.09205,0.191226 0.193695,0.35537 0.3125,0.53125 l 5.40625,7.9375 5.3125,7.28125 c 0.25474,0.561072 0.63161,1.061164 1.09375,1.46875 l 12.1875,9.6875 c 0.81232,0.716744 1.91683,1.113983 2.999998,1.09375 l 10.875,-0.25 10.75,1.46875 c 0.87716,0.11369 1.80781,-0.06295 2.59375,-0.46875 0.78591,-0.405795 1.42852,-1.031514 1.84375,-1.8125 l 4.25,-8.90625 c 0.2044,-0.383624 0.35451,-0.8233 0.4375,-1.25 l 4.28125,-19.5 c 0.074,-0.383346 0.0924,-0.767003 0.0625,-1.15625 l 0.0312,-9.84375 0.84375,-6.84375 c 0.0289,-0.230808 0.0393,-0.486277 0.0312,-0.71875 l -0.3125,-9.84375 c -0.008,-0.232444 -0.0494,-0.490497 -0.0937,-0.71875 l -1.6875,-8.6875 c -0.19373,-1.149934 -0.88496,-2.211194 -1.84375,-2.875 -0.95877,-0.663834 -2.16796,-0.910874 -3.3125,-0.6875 -1.14454,0.223373 -2.20498,0.930605 -2.84375,1.90625 -0.63881,0.975616 -0.84669,2.205355 -0.59375,3.34375 l 1.625,8.34375 0.3125,9.1875 -0.4375,3.3125 -1.15625,0.09375 -1.71875,-1.875 0,-1.75 0.5625,0 a 0.50005,0.50005 0 0 0 0.5,-0.5 l 0.0625,-3.34375 a 0.50005,0.50005 0 0 0 -0.46875,-0.5 l -0.65625,0 0,-3.6875 c 0,-0.177763 -0.0102,-0.35475 -0.0312,-0.53125 l -1.5,-12.4375 c -0.007,-0.0523 -0.0226,-0.104239 -0.0312,-0.15625 l -1.46875,-9.125 c -0.16097,-1.149705 -0.78547,-2.215807 -1.71875,-2.90625 -0.69996,-0.517832 -1.54091,-0.833963 -2.40625,-0.875 -0.28845,-0.01368 -0.58838,0.01689 -0.875,0.0625 -1.14649,0.182442 -2.23338,0.866478 -2.90625,1.8125 -0.67285,0.946051 -0.92261,2.138377 -0.71875,3.28125 l 1.4375,9.0625 1.46875,12.09375 0,3.1875 -0.3125,0 a 0.50005,0.50005 0 0 0 -0.15625,0 0.50005,0.50005 0 0 0 -0.34375,0.5 l -0.0937,3.34375 a 0.50005,0.50005 0 0 0 0.5,0.5 l 0.40625,0 0,0.40625 -1.40625,0.3125 -0.96875,-0.71875 -1.09375,-13.4375 c -0.005,-0.06926 0.008,-0.149804 0,-0.21875 l -1.6875,-13.125 -0.9375,-8.28125 c -0.10727,-1.090087 -0.6473,-2.119178 -1.46875,-2.84375 -0.82145,-0.7246 -1.93629,-1.1233437 -3.03125,-1.09375 z m 10.75,35.65625 8.71875,0.1875 -0.0625,2.34375 -8.6875,-0.1875 0.0312,-2.34375 z" id="path4056" inkscape:connector-curvature="0"/>
  </g>
<text x="0" y="117.5" font-size="5.0" font-weight="bold" font-family="Helvetica Neue, Helvetica, Arial-Unicode, Arial, Sans-serif" fill="#000000">Created by Jakob Vogel</text><text x="0" y="122.5" font-size="5.0" font-weight="bold" font-family="Helvetica Neue, Helvetica, Arial-Unicode, Arial, Sans-serif" fill="#000000">from the Noun Project</text></svg>