<svg xmlns="http://www.w3.org/2000/svg" xmlns:xlink="http://www.w3.org/1999/xlink" version="1.1" x="0px" y="0px" viewBox="5.0 -10.0 100.0 135.0" enable-background="new 0 0 100 100" xml:space="preserve" height="100px" width="100px">
<g id="Sketches" display="none">
	
		</g>
<g id="Working" display="none">
	<path display="inline" fill="none" stroke="#000000" stroke-width="2" stroke-miterlimit="10" d="M77.73,9.61   c5.523-0.03,10.024,4.423,10.054,9.946S83.361,29.58,77.838,29.61C81.802,22.922,81.766,16.255,77.73,9.61z"/>
	<path display="inline" fill="none" stroke="#000000" stroke-width="2" stroke-miterlimit="10" d="M91,77h1c1.105,0,2,0.895,2,2v7   H11v-7c0-1.105,0.895-2,2-2h36"/>
	<path display="inline" fill="none" stroke="#000000" stroke-width="2" stroke-miterlimit="10" d="M91,77"/>
	<circle display="inline" fill="none" stroke="#000000" stroke-width="2" stroke-miterlimit="10" cx="25.5" cy="61.5" r="7.5"/>
	<path display="inline" fill="none" stroke="#000000" stroke-width="2" stroke-miterlimit="10" d="M31,72c0,0-2.532,3-8.5,3   S14,72,14,72s2.63-3,8.5-3S31,72,31,72z"/>
	<path display="inline" fill="none" stroke="#000000" stroke-width="2" stroke-miterlimit="10" d="M50,71.015v9.514   c0,0.826,0.67,1.496,1.496,1.496h38.008c0.826,0,1.496-0.67,1.496-1.496V69.025c0-15.253-10-14-10-14l-38.94,0   c-0.444,0-0.605,0.598-0.214,0.808C44.676,57.352,50,60.39,50,66.015"/>
	<path display="inline" fill="none" stroke="#000000" stroke-width="2" stroke-miterlimit="10" d="M42,55.025c0,0-5,1.996-5,5.852"/>
	<path display="inline" fill="none" stroke="#000000" stroke-width="2" stroke-miterlimit="10" d="M48,60.035c0,0-12.731-0.269-15,2   "/>
	<path display="inline" fill="none" stroke="#000000" stroke-width="2" stroke-miterlimit="10" d="M39,64.025   c4.319,1.318,12,0.99,12,0.99c4.815,0,15,0.01,15,0.01c1.381,0,2.5,1.119,2.5,2.5s-1.119,2.5-2.5,2.5v-0.01c0,0-10.185,0-15,0   c0,0-12.731,0.269-15-2"/>
	<path display="inline" fill="none" stroke="#000000" stroke-width="2" stroke-miterlimit="10" d="M30,67c0,0,5.549,7.025,14,7.025   c3.165,0,7,0,7,0"/>
	<polyline display="inline" fill="none" stroke="#000000" stroke-width="2" stroke-miterlimit="10" points="89,86 91,94.016    94,94.016 94,87  "/>
	<polyline display="inline" fill="none" stroke="#000000" stroke-width="2" stroke-linecap="round" stroke-miterlimit="10" points="   28,37 33.25,37 28.75,43 34,43  "/>
	<polyline display="inline" fill="none" stroke="#000000" stroke-width="2" stroke-linecap="round" stroke-miterlimit="10" points="   38,27 43.25,27 38.75,33 44,33  "/>
	<polyline display="inline" fill="none" stroke="#000000" stroke-width="2" stroke-linecap="round" stroke-miterlimit="10" points="   48,17 53.25,17 48.75,23 54,23  "/>
	<path display="inline" fill="none" stroke="#000000" stroke-width="2" stroke-miterlimit="10" d="M11,42.5   c0-1.381-1.119-2.5-2.5-2.5S6,41.119,6,42.5C6,42.5,6,94,6,94h3l2-8C11,86,11,42.5,11,42.5z"/>
</g>
<g id="Merged">
	<g>
		<path d="M76.978,29.1l-0.9,1.519l1.767-0.009c6.064-0.033,10.973-4.994,10.94-11.059C88.751,13.518,83.817,8.61,77.725,8.61    l-1.766,0.01l0.917,1.509C80.739,16.49,80.773,22.696,76.978,29.1z M86.784,19.562c0.023,4.35-3.059,8.005-7.162,8.86    c2.91-5.877,2.879-11.797-0.095-17.642C83.637,11.592,86.761,15.221,86.784,19.562z"/>
		<path d="M92,76v-6.975c0-5.9-1.449-10.17-4.307-12.692c-2.893-2.553-6.206-2.36-6.745-2.308H42.061    c-0.15,0-0.294,0.029-0.431,0.073l-0.001-0.002c-0.001,0-0.006,0.002-0.007,0.003c-0.035,0.011-0.067,0.028-0.101,0.042    c-0.725,0.311-4.69,2.167-5.401,5.657c-0.819,0.165-1.563,0.364-2.2,0.604C33.379,56.233,29.813,53,25.5,53    c-4.687,0-8.5,3.813-8.5,8.5c0,2.694,1.263,5.094,3.224,6.652c-4.677,0.635-6.872,3.07-6.976,3.188l-0.567,0.646l0.555,0.658    C13.352,72.782,16.141,76,22.5,76s9.148-3.218,9.265-3.355l0.555-0.658l-0.567-0.646c-0.067-0.077-1.006-1.121-2.923-2.021    c0.451-0.193,0.879-0.427,1.287-0.692c1.948,2.027,6.946,6.398,13.884,6.398h5V76H22.5H13c-0.352,0-0.686,0.072-1,0.184V42.5    c0-1.93-1.57-3.5-3.5-3.5S5,40.57,5,42.5V95h4.781l2-8h76.438l2,8.016H95V87v-8C95,77.346,93.654,76,92,76z M41.183,56.567    c0.064,0.049,0.117,0.107,0.191,0.147c0.915,0.491,2.32,1.252,3.678,2.315c-1.934,0.029-4.424,0.133-6.729,0.418    C38.914,58.122,40.211,57.145,41.183,56.567z M19,61.5c0-3.584,2.916-6.5,6.5-6.5s6.5,2.916,6.5,6.5S29.084,68,25.5,68    S19,65.084,19,61.5z M22.5,74c-3.701,0-5.933-1.207-6.991-1.991C16.589,71.219,18.846,70,22.5,70c3.655,0,5.913,1.22,6.991,2.008    C28.43,72.794,26.199,74,22.5,74z M44,73.025c-6.01,0-10.524-3.85-12.338-5.688c1.21-1.277,2.027-2.925,2.261-4.756    c1.695-1.16,8.337-1.6,13.193-1.558c0.713,0.877,1.291,1.882,1.61,3.027c-2.551-0.005-6.723-0.154-9.435-0.981l-0.584,1.913    C43.14,66.333,50.722,66.026,51,66.015c4.815,0,14.999,0.01,15,0.01c0.827,0,1.5,0.673,1.5,1.5c0,0.769-0.582,1.405-1.328,1.49    H50.979c-5.106,0.113-12.914-0.352-14.271-1.707l-1.414,1.414C37.291,70.72,45.037,71.014,49,71.03v1.995H44z M51,73.025v-2.01    l15,0.01c1.93,0,3.5-1.57,3.5-3.5s-1.57-3.5-3.499-3.5c0,0-10.164-0.014-15.044-0.009c-0.006,0-0.075,0.003-0.17,0.006    c-0.842-3.954-4.074-6.483-6.564-7.997H81l0.124-0.008c0.029-0.004,2.821-0.324,5.246,1.815C88.778,59.958,90,63.724,90,69.025    v11.504c0,0.273-0.223,0.496-0.496,0.496H51.496c-0.273,0-0.496-0.223-0.496-0.496v-5.504V73.025z M8.219,93H7V42.5    C7,41.673,7.673,41,8.5,41s1.5,0.673,1.5,1.5V79v6.877L8.219,93z M12,79c0-0.551,0.448-1,1-1h36v2.529    c0,1.376,1.12,2.496,2.496,2.496h38.008c1.376,0,2.496-1.12,2.496-2.496V78c0.552,0,1,0.449,1,1v6H12V79z M93,93.016h-1.219    L90.281,87H93V93.016z"/>
		<path d="M34,44c0.553,0,1-0.448,1-1s-0.447-1-1-1h-3.25l4.5-6H28c-0.553,0-1,0.448-1,1s0.447,1,1,1h3.25l-4.5,6H34z"/>
		<path d="M44,34c0.553,0,1-0.448,1-1s-0.447-1-1-1h-3.25l4.5-6H38c-0.553,0-1,0.448-1,1s0.447,1,1,1h3.25l-4.5,6H44z"/>
		<path d="M54,24c0.553,0,1-0.448,1-1s-0.447-1-1-1h-3.25l4.5-6H48c-0.553,0-1,0.448-1,1s0.447,1,1,1h3.25l-4.5,6H54z"/>
	</g>
</g>
<text x="0.0" y="117.5" font-size="5.0" font-weight="bold" font-family="Helvetica Neue, Helvetica, Arial-Unicode, Arial, Sans-serif" fill="#000000">Created by Demograph&#8482;</text><text x="0.0" y="122.5" font-size="5.0" font-weight="bold" font-family="Helvetica Neue, Helvetica, Arial-Unicode, Arial, Sans-serif" fill="#000000">from the Noun Project</text></svg>