<svg xmlns="http://www.w3.org/2000/svg" xmlns:xlink="http://www.w3.org/1999/xlink" version="1.1" id="Layer_1" x="0px" y="0px" width="100px" height="100px" viewBox="5.0 -10.0 100.0 135.0" enable-background="new 0 0 100 100" xml:space="preserve">
<path d="M50.178,11.057c-2.209-4.846-7.268-2.494-5.557,0.784c1.424,2.637,4.916,5.487,5.557,5.629  c0.643-0.143,4.133-2.993,5.559-5.629C57.447,8.563,52.387,6.211,50.178,11.057z M19.395,20.748c-3.848,0-6.414,2.494-6.414,5.629  v26.082c0,1.496,1.07,2.564,2.566,2.564h0.213c1.496,0,2.566-1.068,2.566-2.564V28.373c0-0.285,0.213-0.499,0.498-0.499h0.072  c0.285,0,0.498,0.214,0.498,0.499v62.992c0,2.139,1.496,3.635,3.562,3.635h0.072c2.066,0,3.633-1.426,3.633-3.492l0.643-37.055  h1.424l0.5,37.055c0,2.066,1.568,3.492,3.635,3.492c2.137,0,3.633-1.496,3.633-3.635V28.373c0-0.285,0.215-0.499,0.5-0.499h0.285  c0.143,0,0.355,0.143,0.428,0.285l9.762,25.725c0.57,1.425,1.924,2.066,3.277,1.496l0.215-0.071  c1.424-0.498,2.066-1.853,1.496-3.277l-9.691-25.654c-1.068-2.494-2.352-5.629-5.201-5.629H19.395z M28.088,18.682  c3.777,0,6.842-3.064,6.842-6.841S31.865,5,28.088,5s-6.84,3.064-6.84,6.841S24.311,18.682,28.088,18.682z M80.605,20.748h-18.17  c-2.852,0-4.133,3.136-5.203,5.629l-9.691,25.654c-0.568,1.425,0.072,2.779,1.498,3.277l0.213,0.071  c1.354,0.57,2.707-0.071,3.277-1.496l9.764-25.725c0.07-0.143,0.285-0.285,0.428-0.285h0.285c0.285,0,0.498,0.214,0.498,0.499  v62.992C63.504,93.504,65,95,67.139,95c2.066,0,3.633-1.426,3.633-3.492l0.5-37.055h1.424l0.643,37.055  c0,2.066,1.566,3.492,3.635,3.492h0.07c2.066,0,3.562-1.496,3.562-3.635V28.373c0-0.285,0.215-0.499,0.5-0.499h0.07  c0.285,0,0.498,0.214,0.498,0.499v24.086c0,1.496,1.07,2.564,2.566,2.564h0.213c1.498,0,2.566-1.068,2.566-2.564V26.377  C87.02,23.242,84.453,20.748,80.605,20.748z M71.912,18.682c3.777,0,6.842-3.064,6.842-6.841S75.689,5,71.912,5  s-6.84,3.064-6.84,6.841S68.135,18.682,71.912,18.682z"/>
<text x="0.0" y="117.5" font-size="5.0" font-weight="bold" font-family="Helvetica Neue, Helvetica, Arial-Unicode, Arial, Sans-serif" fill="#000000">Created by Jason Dilworth</text><text x="0.0" y="122.5" font-size="5.0" font-weight="bold" font-family="Helvetica Neue, Helvetica, Arial-Unicode, Arial, Sans-serif" fill="#000000">from the Noun Project</text></svg>