<svg xmlns="http://www.w3.org/2000/svg" xmlns:xlink="http://www.w3.org/1999/xlink" version="1.1" id="Layer_1" x="0px" y="0px" width="100px" height="100px" viewBox="5.0 -10.0 100.0 135.0" enable-background="new 0 0 100 100" xml:space="preserve">
<path fill="#000000" stroke="#000000" stroke-width="4" stroke-miterlimit="10" d="M608.13,214.428l6.973,66.079  c0.217,3.121,3.941,3.951,3.941,3.951c8.289,1.17,30.277,3.457,58.731,0.038c0,0,4.053-0.616,5.119-4.273l7.895-66.289"/>
<path fill="#000000" d="M608.728,216.681l5.973,59.079c0.217,3.121,3.941,3.951,3.941,3.951c8.289,1.17,30.277,3.457,58.731,0.038  c0,0,4.053-0.616,5.119-4.273l5.895-57.289"/>
<path fill="#000000" stroke="#000000" stroke-width="4" stroke-miterlimit="10" d="M-108.763,251.114  c8.289,1.17,30.278,3.457,58.733,0.038c0,0,4.052-0.616,5.118-4.273l7.895-66.289c0,0-36.15-8.924-82.659,0.494l6.973,66.079  C-112.487,250.284-108.763,251.114-108.763,251.114z"/>
<path fill="#000000" stroke="#000000" stroke-width="4" stroke-miterlimit="10" d="M409.15,166.424c0,0-37.15,0.494-82.659,0.494  l7.33,69.461c0,0,28.08,5.42,66.999,0L409.15,166.424z"/>
<path fill="#000000" stroke="#000000" stroke-width="4" stroke-miterlimit="10" d="M206.15,171.559c0,0-37.104,7.812-82.659,0.494  l7.33,69.461c0,0,28.08,5.42,66.999,0L206.15,171.559z"/>
<line fill="none" stroke="#000000" stroke-width="7" stroke-miterlimit="10" x1="344.342" y1="152.133" x2="351.238" y2="225.043"/>
<path fill="#000000" stroke="#000000" stroke-width="4" stroke-miterlimit="10" d="M516.25,154.232  c-10.925,0.125-38.953,0.404-72.25,0.434c0,0-5.038,0.569-4.895,5.826l6.716,63.637c0,0,28.08,5.42,66.999,0l7.662-64.35  C520.965,154.308,516.25,154.232,516.25,154.232z"/>
<line fill="none" stroke="#000000" stroke-width="7" stroke-miterlimit="10" x1="456.342" y1="139.883" x2="463.238" y2="212.793"/>
<path fill="none" stroke="#000000" stroke-width="8" stroke-miterlimit="10" d="M445.497,222.359c0,0,33.503-3.512,66.999,0"/>
<path fill="none" stroke="#000000" stroke-width="3" stroke-miterlimit="10" d="M-68.552,222.279  c-0.667,1.251-0.499,2.646,0.378,3.113l11.087,5.906c0.876,0.467,2.128-0.171,2.795-1.423l5.021-9.426  c0.668-1.254,0.499-2.647-0.377-3.115l-11.088-5.906c-0.875-0.467-2.127,0.171-2.794,1.424L-68.552,222.279z"/>
<path fill="none" stroke="#000000" stroke-width="3" stroke-miterlimit="10" d="M-82.156,241.267  c-0.38,1.366,0.086,2.691,1.042,2.958l12.103,3.368c0.957,0.267,2.041-0.627,2.421-1.994l2.863-10.289  c0.381-1.368-0.086-2.692-1.042-2.959l-12.103-3.368c-0.957-0.267-2.04,0.626-2.421,1.995L-82.156,241.267z"/>
<path fill="#000000" stroke="#000000" stroke-width="4" stroke-linecap="round" stroke-miterlimit="10" d="M143.442,407.062  l3.973,35.079c0.216,3.121,3.94,3.951,3.94,3.951c8.289,1.17,16.278,3.457,44.733,0.038c0,0,4.052-0.616,5.118-4.273l4.895-34.289"/>
<path fill="none" stroke="#000000" stroke-width="3" stroke-miterlimit="10" d="M176.481,212.871  c-0.667,1.251-0.498,2.646,0.379,3.113l11.087,5.906c0.876,0.467,2.128-0.171,2.795-1.423l5.021-9.426  c0.669-1.254,0.5-2.647-0.377-3.115l-11.088-5.906c-0.875-0.467-2.127,0.171-2.795,1.424L176.481,212.871z"/>
<path fill="none" stroke="#000000" stroke-width="3" stroke-miterlimit="10" d="M162.878,231.858  c-0.38,1.366,0.087,2.691,1.043,2.958l12.103,3.368c0.957,0.267,2.041-0.627,2.421-1.994l2.863-10.289  c0.381-1.368-0.086-2.692-1.042-2.959l-12.103-3.368c-0.957-0.267-2.04,0.626-2.421,1.995L162.878,231.858z"/>
<path fill="none" stroke="#000000" stroke-width="3" stroke-miterlimit="10" d="M648.649,272.11  c-0.381,1.366,0.086,2.691,1.043,2.958l12.103,3.368c0.957,0.267,2.041-0.627,2.42-1.994l2.863-10.289  c0.381-1.368-0.086-2.692-1.041-2.959l-12.104-3.368c-0.957-0.267-2.039,0.626-2.42,1.995L648.649,272.11z"/>
<ellipse fill="#000000" stroke="#000000" stroke-width="4" stroke-miterlimit="10" cx="649.431" cy="214.504" rx="41.301" ry="6.033"/>
<path fill="none" stroke="#000000" stroke-width="4" stroke-linecap="round" stroke-miterlimit="10" d="M141.668,382.522  c-0.157-0.077,31.5,4.645,66.5,0"/>
<path fill="none" stroke="#000000" stroke-width="4" stroke-linecap="round" stroke-miterlimit="10" d="M142.091,390.535  c-0.155-0.076,31.1,4.586,65.654,0"/>
<path fill="none" stroke="#000000" stroke-width="4" stroke-linecap="round" stroke-miterlimit="10" d="M142.594,398.951  c-0.153-0.075,30.622,4.515,64.648,0"/>
<path fill="none" stroke="#000000" stroke-width="4" stroke-linecap="round" stroke-miterlimit="10" d="M143.816,406.966  c-0.147-0.073,29.464,4.344,62.203,0"/>
<path fill="#000000" stroke="#000000" stroke-width="4" stroke-miterlimit="10" d="M133.324,305.084l6.973,66.079  c0.217,3.121,3.941,3.951,3.941,3.951c8.289,1.17,30.277,3.457,58.732,0.038c0,0,4.053-0.616,5.119-4.273l7.895-66.289"/>
<path fill="none" stroke="#000000" stroke-width="3" stroke-miterlimit="10" d="M187.447,343.779  c-0.667,1.251-0.498,2.646,0.379,3.113l11.087,5.906c0.876,0.467,2.128-0.171,2.795-1.423l5.021-9.426  c0.669-1.254,0.5-2.647-0.377-3.115l-11.088-5.906c-0.875-0.467-2.127,0.171-2.795,1.424L187.447,343.779z"/>
<path fill="none" stroke="#000000" stroke-width="3" stroke-miterlimit="10" d="M173.844,362.767  c-0.38,1.366,0.087,2.691,1.043,2.958l12.103,3.368c0.957,0.267,2.041-0.627,2.421-1.994l2.863-10.289  c0.381-1.368-0.086-2.692-1.042-2.959l-12.103-3.368c-0.957-0.267-2.04,0.626-2.421,1.995L173.844,362.767z"/>
<ellipse fill="#000000" stroke="#000000" stroke-width="4" stroke-miterlimit="10" cx="174.543" cy="305.16" rx="41.219" ry="6.033"/>
<line fill="none" stroke="#000000" stroke-width="6" stroke-miterlimit="10" x1="149.676" y1="288.132" x2="156.572" y2="361.042"/>
<path fill="#000000" stroke="#000000" stroke-width="4" stroke-linecap="round" stroke-miterlimit="10" d="M364.942,399.062  l3.973,35.079c0.216,3.121,3.94,3.951,3.94,3.951c8.289,1.17,16.278,3.457,44.733,0.038c0,0,4.052-0.616,5.118-4.273l4.895-34.289"/>
<path fill="none" stroke="#000000" stroke-width="4" stroke-linecap="round" stroke-miterlimit="10" d="M363.663,382.537  c-0.154-0.075,31.031,4.576,65.51,0"/>
<path fill="none" stroke="#000000" stroke-width="4" stroke-linecap="round" stroke-miterlimit="10" d="M364.746,390.57  c-0.149-0.073,30.005,4.425,63.344,0"/>
<path fill="none" stroke="#000000" stroke-width="4" stroke-linecap="round" stroke-miterlimit="10" d="M365.316,398.966  c-0.147-0.073,29.464,4.344,62.203,0"/>
<path fill="#000000" stroke="#000000" stroke-width="4" stroke-miterlimit="10" d="M354.824,305.084l6.973,66.079  c0.217,3.121,3.941,3.951,3.941,3.951c8.289,1.17,30.277,3.457,58.732,0.038c0,0,4.053-0.616,5.119-4.273l7.895-66.289"/>
<path fill="none" stroke="#000000" stroke-width="3" stroke-miterlimit="10" d="M408.947,343.779  c-0.667,1.251-0.498,2.646,0.379,3.113l11.087,5.906c0.876,0.467,2.128-0.171,2.795-1.423l5.021-9.426  c0.669-1.254,0.5-2.647-0.377-3.115l-11.088-5.906c-0.875-0.467-2.127,0.171-2.795,1.424L408.947,343.779z"/>
<path fill="none" stroke="#000000" stroke-width="3" stroke-miterlimit="10" d="M395.344,362.767  c-0.38,1.366,0.087,2.691,1.043,2.958l12.103,3.368c0.957,0.267,2.041-0.627,2.421-1.994l2.863-10.289  c0.381-1.368-0.086-2.692-1.042-2.959l-12.103-3.368c-0.957-0.267-2.04,0.626-2.421,1.995L395.344,362.767z"/>
<path fill="none" stroke="#000000" stroke-width="3" stroke-miterlimit="10" d="M395.344,425.667  c-0.38,1.366,0.087,2.691,1.043,2.958l12.103,3.368c0.957,0.267,2.041-0.627,2.421-1.994l2.863-10.289  c0.381-1.368-0.086-2.692-1.042-2.959l-12.103-3.368c-0.957-0.267-2.04,0.626-2.421,1.995L395.344,425.667z"/>
<ellipse fill="#000000" stroke="#000000" stroke-width="4" stroke-miterlimit="10" cx="396.043" cy="305.16" rx="41.219" ry="6.033"/>
<line fill="none" stroke="#000000" stroke-width="6" stroke-miterlimit="10" x1="371.176" y1="288.132" x2="378.072" y2="361.042"/>
<path fill="#000000" stroke="#000000" stroke-width="4" stroke-linecap="round" stroke-miterlimit="10" d="M252.501,407.441  l3.973,35.079c0.216,3.121,3.94,3.951,3.94,3.951c8.289,1.17,16.278,3.457,44.733,0.038c0,0,4.052-0.616,5.118-4.273l4.895-34.289"/>
<path fill="none" stroke="#000000" stroke-width="4" stroke-linecap="round" stroke-miterlimit="10" d="M250.727,386.902  c-0.157-0.077,31.5,4.645,66.5,0"/>
<path fill="none" stroke="#000000" stroke-width="4" stroke-linecap="round" stroke-miterlimit="10" d="M251.149,394.915  c-0.155-0.076,31.1,4.586,65.654,0"/>
<path fill="none" stroke="#000000" stroke-width="4" stroke-linecap="round" stroke-miterlimit="10" d="M252.875,407.346  c-0.147-0.073,29.464,4.344,62.203,0"/>
<path fill="#000000" stroke="#000000" stroke-width="4" stroke-miterlimit="10" d="M242.383,305.464l6.973,66.079  c0.217,3.121,3.941,3.951,3.941,3.951c8.289,1.17,30.277,3.457,58.732,0.038c0,0,4.053-0.616,5.119-4.273l7.895-66.289"/>
<path fill="none" stroke="#000000" stroke-width="3" stroke-miterlimit="10" d="M296.506,344.159  c-0.667,1.251-0.498,2.646,0.379,3.113l11.087,5.906c0.876,0.467,2.128-0.171,2.795-1.423l5.021-9.426  c0.669-1.254,0.5-2.647-0.377-3.115l-11.088-5.906c-0.875-0.467-2.127,0.171-2.795,1.424L296.506,344.159z"/>
<path fill="none" stroke="#000000" stroke-width="3" stroke-miterlimit="10" d="M282.902,363.146  c-0.38,1.366,0.087,2.691,1.043,2.958l12.103,3.368c0.957,0.267,2.041-0.627,2.421-1.994l2.863-10.289  c0.381-1.368-0.086-2.692-1.042-2.959l-12.103-3.368c-0.957-0.267-2.04,0.626-2.421,1.995L282.902,363.146z"/>
<ellipse fill="#000000" stroke="#000000" stroke-width="4" stroke-miterlimit="10" cx="283.602" cy="305.54" rx="41.219" ry="6.033"/>
<line fill="none" stroke="#000000" stroke-width="6" stroke-miterlimit="10" x1="258.734" y1="288.512" x2="265.631" y2="361.422"/>
<path fill="#000000" stroke="#000000" stroke-width="4" stroke-miterlimit="10" d="M-132.162,305.084l6.973,66.079  c0.217,3.121,3.941,3.951,3.941,3.951c8.289,1.17,30.277,3.457,58.732,0.038c0,0,4.053-0.616,5.119-4.273l7.895-66.289"/>
<path fill="none" stroke="#000000" stroke-width="3" stroke-miterlimit="10" d="M-78.039,343.779  c-0.667,1.251-0.498,2.646,0.379,3.113l11.087,5.906c0.876,0.467,2.128-0.171,2.795-1.423l5.021-9.426  c0.669-1.254,0.5-2.647-0.377-3.115l-11.088-5.906c-0.875-0.467-2.127,0.171-2.795,1.424L-78.039,343.779z"/>
<path fill="none" stroke="#000000" stroke-width="3" stroke-miterlimit="10" d="M-91.643,362.767  c-0.38,1.366,0.087,2.691,1.043,2.958l12.103,3.368c0.957,0.267,2.041-0.627,2.421-1.994l2.863-10.289  c0.381-1.368-0.086-2.692-1.042-2.959l-12.103-3.368c-0.957-0.267-2.04,0.626-2.421,1.995L-91.643,362.767z"/>
<ellipse fill="#000000" stroke="#000000" stroke-width="4" stroke-miterlimit="10" cx="-90.943" cy="305.16" rx="41.219" ry="6.033"/>
<line fill="none" stroke="#000000" stroke-width="6" stroke-miterlimit="10" x1="-113.471" y1="288.132" x2="-111.254" y2="311.574"/>
<line fill="none" stroke="#000000" stroke-width="6" stroke-miterlimit="10" x1="627.542" y1="198.476" x2="629.647" y2="220.719"/>
<path fill="#000000" stroke="#000000" stroke-width="4" stroke-miterlimit="10" d="M-3.342,305.75l6.973,66.079  c0.217,3.121,3.941,3.951,3.941,3.951c8.289,1.17,30.277,3.457,58.732,0.038c0,0,4.053-0.616,5.119-4.273l7.895-66.289"/>
<path fill="none" stroke="#000000" stroke-width="3" stroke-miterlimit="10" d="M50.781,344.445  c-0.667,1.251-0.498,2.646,0.379,3.113l11.087,5.906c0.876,0.467,2.128-0.171,2.795-1.423l5.021-9.426  c0.669-1.254,0.5-2.647-0.377-3.115l-11.088-5.906c-0.875-0.467-2.127,0.171-2.795,1.424L50.781,344.445z"/>
<path fill="none" stroke="#000000" stroke-width="3" stroke-miterlimit="10" d="M37.178,363.433  c-0.38,1.366,0.087,2.691,1.043,2.958l12.103,3.368c0.957,0.267,2.041-0.627,2.421-1.994l2.863-10.289  c0.381-1.368-0.086-2.692-1.042-2.959l-12.103-3.368c-0.957-0.267-2.04,0.626-2.421,1.995L37.178,363.433z"/>
<ellipse fill="#000000" stroke="#000000" stroke-width="4" stroke-miterlimit="10" cx="37.877" cy="305.826" rx="41.219" ry="6.033"/>
<path fill="none" stroke="#000000" stroke-width="4" stroke-linecap="round" stroke-miterlimit="10" d="M5.667,382.559  c-0.151-0.074,30.395,4.481,64.167,0"/>
<line fill="none" stroke="#000000" stroke-width="6" stroke-miterlimit="10" x1="16.071" y1="289.798" x2="18.176" y2="312.041"/>
<path fill="none" stroke="#000000" stroke-width="3" stroke-miterlimit="10" d="M662.252,253.123  c-0.666,1.251-0.498,2.646,0.379,3.113l11.088,5.906c0.875,0.467,2.127-0.171,2.795-1.423l5.02-9.426  c0.67-1.254,0.5-2.647-0.377-3.115l-11.088-5.906c-0.875-0.467-2.127,0.171-2.795,1.424L662.252,253.123z"/>
<path fill="#000000" stroke="#000000" stroke-width="4" stroke-miterlimit="10" d="M9.316-102.289l7.377,69.914  c0.229,3.302,4.17,4.181,4.17,4.181c8.771,1.237,32.034,3.657,62.139,0.04c0,0,4.289-0.652,5.416-4.521l8.354-70.136"/>
<path fill="#000000" d="M10.098-99.905l6.319,62.506c0.229,3.303,4.17,4.182,4.17,4.182c8.771,1.237,29.918,3.657,60.024,0.04  c0,0,4.287-0.652,5.416-4.521l8.352-60.614"/>
<path fill="none" stroke="#000000" stroke-width="3" stroke-miterlimit="10" d="M50.188-41.259c-0.404,1.445,0.09,2.848,1.102,3.129  l12.807,3.564c1.012,0.281,2.158-0.664,2.559-2.11l3.031-10.886c0.402-1.447-0.092-2.849-1.102-3.131l-12.807-3.563  c-1.012-0.282-2.158,0.662-2.561,2.11L50.188-41.259z"/>
<ellipse fill="#000000" stroke="#000000" stroke-width="4" stroke-miterlimit="10" cx="53.015" cy="-102.208" rx="43.698" ry="6.383"/>
<g>
	<rect x="19.15" y="-110.4" transform="matrix(0.0943 0.9955 -0.9955 0.0943 -78.8719 -128.1052)" width="23.638" height="6.001"/>
</g>
<path fill="none" stroke="#000000" stroke-width="3" stroke-miterlimit="10" d="M64.578-61.348c-0.705,1.323-0.527,2.799,0.4,3.294  l11.732,6.249c0.926,0.493,2.25-0.181,2.957-1.506l5.311-9.973c0.709-1.326,0.529-2.801-0.398-3.296l-11.732-6.249  c-0.926-0.494-2.25,0.181-2.957,1.507L64.578-61.348z"/>
<path fill="#000000" stroke="#FFFFFF" stroke-width="2" stroke-miterlimit="10" d="M25.438-93.587c0,0,3.875,0.781,12.875,1.125"/>
<path d="M-302.365,104.401l-0.029,0.249l-83.43,0.498l-0.021-0.198l-3.978,0.42l7.371,69.842c0.262,3.782,3.725,5.548,5.73,5.995  l0.156,0.028c5.316,0.75,16.15,1.96,30.701,1.96c9.309,0,20.14-0.495,32.018-1.923c0.227-0.035,5.568-0.902,7.035-5.939l0.047-0.159  l8.373-70.3L-302.365,104.401z M-311.123,169.751c-1.129,3.869-5.416,4.521-5.416,4.521c-30.106,3.617-51.254,1.197-60.024-0.04  c0,0-3.94-0.879-4.17-4.182l-6.319-62.506l84.281,1.592L-311.123,169.751z"/>
<path d="M-332.689,174.434C-332.689,174.434-332.689,174.434-332.689,174.434c-0.26,0-0.519-0.035-0.767-0.104l-12.808-3.564  c-0.758-0.211-1.406-0.734-1.822-1.473c-0.553-0.98-0.67-2.259-0.321-3.506l3.028-10.885c0.533-1.918,2.029-3.258,3.64-3.258  c0.261,0,0.52,0.035,0.77,0.104l12.806,3.563c1.836,0.514,2.777,2.7,2.145,4.978l-3.031,10.887  C-329.582,173.093-331.078,174.434-332.689,174.434z M-341.775,154.639c-0.098,0.024-0.517,0.359-0.713,1.066l-3.029,10.888  c-0.198,0.708-0.012,1.21,0.099,1.301l12.737,3.537c0.154-0.04,0.551-0.375,0.74-1.058l3.031-10.888  c0.197-0.708,0.01-1.212-0.102-1.303L-341.775,154.639z"/>
<path d="M-344.137,113.625c-11.765,0-22.841-0.672-31.188-1.891c-12.752-1.863-14.51-4.221-14.51-6.492s1.758-4.631,14.51-6.493  c8.346-1.22,19.421-1.891,31.188-1.891c11.766,0,22.843,0.671,31.188,1.891c12.753,1.862,14.511,4.222,14.511,6.493  s-1.758,4.629-14.511,6.492C-321.295,112.953-332.372,113.625-344.137,113.625z"/>
<path d="M-319.774,157.306L-319.774,157.306c-0.488,0-0.95-0.113-1.37-0.337l-11.732-6.249c-1.684-0.898-2.131-3.237-1.02-5.323  l5.312-9.974c0.799-1.497,2.218-2.464,3.616-2.464c0.489,0,0.95,0.114,1.371,0.339l11.731,6.248c0.881,0.471,1.463,1.374,1.597,2.48  c0.112,0.925-0.094,1.937-0.58,2.847l-5.31,9.971C-316.957,156.34-318.376,157.306-319.774,157.306z M-325.008,135.945  c-0.135,0.014-0.599,0.271-0.929,0.889l-5.312,9.973c-0.341,0.64-0.269,1.184-0.183,1.292l11.668,6.207  c0.184-0.011,0.635-0.27,0.957-0.873l5.31-9.972c0.344-0.642,0.271-1.186,0.186-1.294L-325.008,135.945z"/>
<path d="M-367.273,115.445l2.219,45.791l5.974-1.105l-2.144-44.252C-363.693,115.753-365.698,115.598-367.273,115.445z"/>
<path d="M217.969,18.401l-0.029,0.249l-83.43,0.498l-0.021-0.198l-3.978,0.42l7.37,69.842c0.262,3.782,3.725,5.548,5.73,5.995  l0.156,0.028c5.316,0.75,16.149,1.96,30.7,1.96c9.31,0,20.14-0.495,32.019-1.923c0.227-0.035,5.568-0.902,7.035-5.939l0.047-0.159  l8.373-70.3L217.969,18.401z M209.211,83.751c-1.129,3.869-5.416,4.521-5.416,4.521c-30.107,3.617-51.254,1.197-60.025-0.04  c0,0-3.939-0.879-4.17-4.182l-6.318-62.506l84.281,1.592L209.211,83.751z"/>
<path d="M187.645,88.434c0,0,0,0-0.002,0c-0.258,0-0.518-0.035-0.766-0.104l-12.807-3.564c-0.759-0.211-1.406-0.734-1.822-1.473  c-0.554-0.98-0.671-2.259-0.322-3.506l3.029-10.885c0.533-1.918,2.029-3.258,3.639-3.258c0.262,0,0.52,0.035,0.77,0.104  l12.807,3.563c1.836,0.514,2.777,2.7,2.145,4.978l-3.031,10.887C190.752,87.093,189.256,88.434,187.645,88.434z M178.559,68.639  c-0.098,0.024-0.518,0.359-0.713,1.066l-3.029,10.888c-0.199,0.708-0.012,1.21,0.099,1.301l12.737,3.537  c0.154-0.04,0.551-0.375,0.74-1.058l3.031-10.888c0.197-0.708,0.01-1.212-0.102-1.303L178.559,68.639z"/>
<ellipse fill="#000000" cx="176.198" cy="19.242" rx="43.698" ry="6.383"/>
<path d="M176.197,27.625c-11.766,0-22.842-0.671-31.188-1.891c-12.752-1.863-14.51-4.221-14.51-6.492  c0-2.271,1.758-4.63,14.51-6.493c8.346-1.219,19.421-1.891,31.188-1.891c11.766,0,22.842,0.671,31.188,1.891  c12.754,1.863,14.512,4.222,14.512,6.493c0,2.271-1.758,4.629-14.512,6.492C199.039,26.954,187.961,27.625,176.197,27.625z   M135.037,19.242c3.601,1.944,18.799,4.383,41.16,4.383s37.561-2.438,41.16-4.383c-3.6-1.944-18.797-4.383-41.16-4.383  S138.637,17.297,135.037,19.242z"/>
<path d="M200.559,71.306L200.559,71.306c-0.488,0-0.949-0.113-1.369-0.337l-11.732-6.249c-1.684-0.898-2.131-3.237-1.02-5.323  l5.312-9.974c0.799-1.497,2.217-2.463,3.615-2.463c0.49,0,0.951,0.114,1.371,0.338l11.732,6.248c0.881,0.471,1.463,1.374,1.596,2.48  c0.113,0.925-0.094,1.937-0.58,2.847l-5.309,9.971C203.377,70.34,201.957,71.306,200.559,71.306z M195.326,49.945  c-0.135,0.015-0.6,0.271-0.93,0.889l-5.311,9.973c-0.342,0.64-0.27,1.184-0.184,1.292l11.668,6.207  c0.184-0.011,0.635-0.27,0.957-0.873l5.311-9.972c0.344-0.642,0.271-1.186,0.186-1.294L195.326,49.945z"/>
<path d="M157.83,21.08L156.025,2l-5.975,0.566l1.705,18.004C153.203,20.735,155.217,20.923,157.83,21.08z"/>
<path d="M153.061,29.445l2.219,45.791l5.973-1.105l-2.143-44.252C156.641,29.753,154.635,29.598,153.061,29.445z"/>
<path fill="#000000" stroke="#000000" stroke-width="4" stroke-miterlimit="10" d="M-117.834,19.16l7.377,69.914  c0.229,3.302,4.17,4.181,4.17,4.181c8.771,1.237,32.034,3.657,62.139,0.04c0,0,4.289-0.652,5.416-4.521l8.354-70.136"/>
<path fill="#000000" d="M-117.053,21.545l6.319,62.506c0.229,3.303,4.17,4.182,4.17,4.182c8.771,1.237,29.918,3.657,60.024,0.04  c0,0,4.287-0.652,5.416-4.521l8.352-60.614"/>
<ellipse fill="#000000" stroke="#000000" stroke-width="4" stroke-miterlimit="10" cx="-74.136" cy="19.242" rx="43.698" ry="6.383"/>
<path d="M-92.503,21.08L-94.309,2l-5.975,0.566l1.705,18.004C-97.13,20.735-95.116,20.923-92.503,21.08z"/>
<path d="M-97.273,29.445l2.219,45.791l5.974-1.105l-2.144-44.252C-93.693,29.753-95.698,29.598-97.273,29.445z"/>
<path fill="#000000" d="M-303.5,105.492c0,1.383-18.266,4.383-40.793,4.383c-22.528,0-40.791-3.125-40.791-4.383  c0-1.117,18.263-4.384,40.791-4.384C-321.766,101.108-303.5,104.125-303.5,105.492z"/>
<path d="M-362.503,107.08L-364.309,88l-5.975,0.566l1.705,18.004C-367.13,106.735-365.116,106.923-362.503,107.08z"/>
<path d="M-206.032-46.932l-0.029,0.249l-83.43,0.498l-0.021-0.198l-3.978,0.42l7.371,69.842c0.262,3.782,3.725,5.548,5.73,5.995  l0.156,0.028c5.316,0.75,16.15,1.96,30.701,1.96c9.309,0,20.14-0.495,32.018-1.923c0.227-0.035,5.568-0.902,7.035-5.939l0.047-0.159  l8.373-70.3L-206.032-46.932z M-214.79,18.418c-1.129,3.869-5.416,4.521-5.416,4.521c-30.106,3.617-51.254,1.197-60.024-0.04  c0,0-3.94-0.879-4.17-4.182l-6.319-62.506l84.281,1.592L-214.79,18.418z"/>
<path d="M-236.356,23.101C-236.356,23.101-236.356,23.101-236.356,23.101c-0.26,0-0.519-0.035-0.767-0.104l-12.808-3.564  c-0.758-0.211-1.406-0.734-1.822-1.473c-0.553-0.98-0.67-2.259-0.321-3.506l3.028-10.885c0.533-1.918,2.029-3.258,3.64-3.258  c0.261,0,0.52,0.035,0.77,0.104l12.806,3.563c1.836,0.514,2.777,2.7,2.145,4.978l-3.031,10.887  C-233.249,21.76-234.745,23.101-236.356,23.101z M-245.442,3.306c-0.098,0.024-0.517,0.359-0.713,1.066l-3.029,10.888  c-0.198,0.708-0.012,1.21,0.099,1.301l12.737,3.537c0.154-0.04,0.551-0.375,0.74-1.058l3.031-10.888  c0.197-0.708,0.01-1.212-0.102-1.303L-245.442,3.306z"/>
<path d="M-247.803-37.708c-11.765,0-22.841-0.671-31.188-1.891c-12.752-1.863-14.51-4.221-14.51-6.492  c0-2.271,1.758-4.63,14.51-6.493c8.346-1.219,19.421-1.891,31.188-1.891c11.766,0,22.843,0.671,31.188,1.891  c12.753,1.863,14.511,4.222,14.511,6.493c0,2.271-1.758,4.629-14.511,6.492C-224.961-38.379-236.039-37.708-247.803-37.708z"/>
<path d="M-223.441,5.973L-223.441,5.973c-0.488,0-0.95-0.113-1.37-0.337l-11.732-6.249c-1.684-0.898-2.131-3.237-1.02-5.323  l5.312-9.974c0.799-1.497,2.218-2.463,3.616-2.463c0.489,0,0.95,0.114,1.371,0.338l11.731,6.248c0.881,0.471,1.463,1.374,1.597,2.48  c0.112,0.925-0.094,1.937-0.58,2.847l-5.31,9.971C-220.624,5.007-222.042,5.973-223.441,5.973z M-228.674-15.388  c-0.135,0.015-0.599,0.271-0.929,0.889l-5.312,9.973c-0.341,0.64-0.269,1.184-0.183,1.292l11.668,6.207  c0.184-0.011,0.635-0.27,0.957-0.873l5.31-9.972c0.344-0.642,0.271-1.186,0.186-1.294L-228.674-15.388z"/>
<path d="M-270.94-35.888l2.219,45.791l5.974-1.105l-2.144-44.252C-267.36-35.58-269.365-35.735-270.94-35.888z"/>
<path fill="#000000" d="M-207.167-45.841c0,1.383-18.266,4.383-40.793,4.383c-22.528,0-40.791-3.125-40.791-4.383  c0-1.117,18.263-4.384,40.791-4.384C-225.432-50.225-207.167-47.208-207.167-45.841z"/>
<path d="M-266.169-44.253l-1.806-19.08l-5.975,0.566l1.705,18.004C-270.796-44.598-268.783-44.41-266.169-44.253z"/>
<path d="M62.35,88.434c0,0,0,0-0.002,0c-0.258,0-0.518-0.035-0.766-0.104l-12.807-3.564c-0.758-0.211-1.406-0.734-1.822-1.473  c-0.553-0.98-0.67-2.259-0.321-3.506l3.028-10.885c0.533-1.918,2.03-3.258,3.639-3.258c0.262,0,0.52,0.035,0.77,0.104l12.807,3.563  c1.836,0.514,2.777,2.7,2.145,4.978l-3.031,10.887C65.457,87.093,63.961,88.434,62.35,88.434z M53.264,68.639  c-0.098,0.024-0.518,0.359-0.713,1.066l-3.03,10.888c-0.198,0.708-0.012,1.21,0.099,1.301l12.737,3.537  c0.154-0.04,0.551-0.375,0.74-1.058l3.031-10.888c0.197-0.708,0.01-1.212-0.102-1.303L53.264,68.639z"/>
<path d="M75.264,71.306L75.264,71.306c-0.488,0-0.949-0.113-1.369-0.337L62.162,64.72c-1.684-0.898-2.131-3.237-1.02-5.323  l5.312-9.974c0.799-1.497,2.217-2.463,3.615-2.463c0.49,0,0.951,0.114,1.371,0.338l11.732,6.248c0.881,0.471,1.463,1.374,1.596,2.48  c0.113,0.925-0.094,1.937-0.58,2.847l-5.309,9.971C78.082,70.34,76.662,71.306,75.264,71.306z M70.031,49.945  c-0.135,0.015-0.6,0.271-0.93,0.889l-5.311,9.973c-0.342,0.64-0.27,1.184-0.184,1.292l11.668,6.207  c0.184-0.011,0.635-0.27,0.957-0.873l5.311-9.972c0.344-0.642,0.271-1.186,0.186-1.294L70.031,49.945z"/>
<path d="M27.765,29.445l2.219,45.791l5.974-1.105l-2.144-44.252C31.345,29.753,29.34,29.598,27.765,29.445z"/>
<path d="M96.646,18.207l-0.207-0.024c-0.647-1.931-3.572-3.859-14.35-5.434c-8.346-1.219-19.422-1.891-31.188-1.891  c-11.767,0-22.842,0.671-31.188,1.891C7.974,14.464,5.555,16.6,5.244,18.7l-0.028,0.003l0.012,0.109  c-0.017,0.144-0.023,0.287-0.023,0.43c0,0.375,0.05,0.753,0.188,1.131l7.194,68.172c0.262,3.782,3.725,5.548,5.73,5.995l0.156,0.028  c5.316,0.75,16.15,1.96,30.701,1.96c9.309,0,20.14-0.495,32.018-1.923c0.227-0.035,5.568-0.902,7.035-5.939l0.047-0.159  l8.104-68.041c0.166-0.409,0.225-0.818,0.225-1.224c0-0.147-0.008-0.295-0.025-0.443L96.646,18.207z M50.746,15.108  c22.527,0,40.793,3.017,40.793,4.384c0,1.383-18.266,4.383-40.793,4.383c-22.528,0-40.792-3.125-40.792-4.383  C9.955,18.375,28.218,15.108,50.746,15.108z M83.916,83.084c-1.129,3.869-5.416,4.521-5.416,4.521  c-30.106,3.617-51.254,1.197-60.024-0.04c0,0-3.94-0.879-4.17-4.182L8.191,22.901c2.111,1.011,5.648,1.975,11.523,2.833  c8.347,1.219,19.422,1.891,31.188,1.891c11.764,0,22.842-0.671,31.188-1.891c4.668-0.682,7.858-1.43,10.033-2.216L83.916,83.084z"/>
<path d="M32.536,21.08L30.73,2l-5.975,0.566L26.46,20.57C27.909,20.735,29.922,20.923,32.536,21.08z"/>
<text x="0.0" y="117.5" font-size="5.0" font-weight="bold" font-family="Helvetica Neue, Helvetica, Arial-Unicode, Arial, Sans-serif" fill="#000000">Created by Matan Lamm</text><text x="0.0" y="122.5" font-size="5.0" font-weight="bold" font-family="Helvetica Neue, Helvetica, Arial-Unicode, Arial, Sans-serif" fill="#000000">from the Noun Project</text></svg>